<?xml version="1.0" encoding="UTF-8"?>
<svg id="Layer_1" data-name="Layer 1" xmlns="http://www.w3.org/2000/svg" viewBox="0 0 93.63 88.32">
  <defs>
    <style>
      .cls-1 {
        fill: #006019;
      }

      .cls-2, .cls-3 {
        fill: #fff;
      }

      .cls-4, .cls-5, .cls-6, .cls-7 {
        fill: #ffa4a4;
      }

      .cls-8 {
        fill: #221f20;
      }

      .cls-5 {
        stroke-linecap: round;
      }

      .cls-5, .cls-6, .cls-3, .cls-7, .cls-9, .cls-10, .cls-11, .cls-12 {
        stroke-miterlimit: 10;
      }

      .cls-5, .cls-6, .cls-7, .cls-10, .cls-12 {
        stroke: #006019;
      }

      .cls-6 {
        stroke-width: .5px;
      }

      .cls-3, .cls-9, .cls-11 {
        stroke: #221f20;
      }

      .cls-9, .cls-10 {
        fill: #dae063;
      }

      .cls-11, .cls-12 {
        fill: none;
      }
    </style>
  </defs>
  <path class="cls-9" d="M63.44,75.39c1.44-1.52,3.77,.5,6.21-.57,4.38-1.91,1.63-10.46,6.81-14.48,2.37-1.83,5.72-2.21,8.3-1.28,3.63,1.32,5.56,5.18,5.96,8.09,1.07,7.73-7.49,16.51-15.97,17.25-4.98,.44-11.65,0-11.65,0-1.08-1.71-.88-7.74,.33-9.01Z"/>
  <path class="cls-9" d="M56.12,59.98c1.02,.83,2.37,2.05,3.76,3.72,2.63,3.18,7.53,10.6,5.79,15.19-2.76,7.31-23.52,10.65-29.27,1.6-4.22-6.65-.31-19.95,8.28-22.58,5.06-1.55,9.92,1.14,11.44,2.07Z"/>
  <path class="cls-9" d="M19.29,38.42c-3.43-1.27-4.16-7.17-4.63-10.95-.22-1.8-2.02-17.83,6.79-21.29,6.33-2.49,17.68,9.07,17.68,9.07,3.7,11.12-13.25,25.61-19.84,23.18Z"/>
  <path class="cls-9" d="M32.55,18.53c-2.92-2.78-7.05-6.9-9.4-6.48-4.58,.82-3.44,17.03-1.51,19.85,2.02,2.96,16.37-8.19,10.91-13.38Z"/>
  <path class="cls-9" d="M74.1,38.42c3.43-1.27,4.16-7.17,4.63-10.95,.22-1.8,2.02-17.83-6.79-21.29-6.33-2.49-17.68,9.07-17.68,9.07-3.7,11.12,13.25,25.61,19.84,23.18Z"/>
  <path class="cls-9" d="M60.85,18.53c2.92-2.78,7.05-6.9,9.4-6.48,4.58,.82,3.44,17.03,1.51,19.85s-16.37-8.19-10.91-13.38Z"/>
  <path class="cls-9" d="M73.69,38.42c1.58-.73,3.16-.74,4.83-.5,4.83,.68,7.51,2.64,9.43,4.1,0,0-2.87-.76-7.6-.46-2.89,.18-5,.88-5.83,1.44,0,0,5.07-.11,10.39,2.51,4.72,2.33,6.12,4.55,7.15,6.69,0,0-2.35-1.59-6.39-2.58-2.61-.64-5.02-.3-5.02-.3,2.35,.75,3.24,1.37,5.02,2.89,1.6,1.37,1.85,2.04,2.43,3.5,0,0-2.45-2-6.08-3.04-4.22-1.22-8.3,.01-8.32,.61-.01,.47,2.32-.25,4.92,1.73,1.63,1.23,2.37,2.77,2.79,3.89,0,0-1.96-1.82-4.86-2.43-3.25-.69-6.12,.47-6.12,.47-3.51-1.74-3.09-15.56,3.26-18.51Z"/>
  <path class="cls-9" d="M19.29,38.42c-1.58-.73-3.16-.74-4.83-.5-4.83,.68-7.51,2.64-9.43,4.1,0,0,2.87-.76,7.6-.46,2.89,.18,5,.88,5.83,1.44,0,0-5.07-.11-10.39,2.51-4.72,2.33-6.12,4.55-7.15,6.69,0,0,2.35-1.59,6.39-2.58,2.61-.64,5.02-.3,5.02-.3-2.35,.75-3.24,1.37-5.02,2.89-1.6,1.37-1.85,2.04-2.43,3.5,0,0,2.45-2,6.08-3.04,4.22-1.22,8.3,.01,8.32,.61,.01,.47-2.32-.25-4.92,1.73-1.63,1.23-2.37,2.77-2.79,3.89,0,0,1.96-1.82,4.86-2.43,3.25-.69,6.12,.47,6.12,.47,3.51-1.74,3.09-15.56-3.26-18.51Z"/>
  <path class="cls-9" d="M46.4,14.12c15.64,0,28.32,15.5,28.32,34.63s-56.65,19.12-56.64,0c0-19.12,12.68-34.62,28.33-34.62Z"/>
  <path class="cls-2" d="M40.98,32.23c1.24,3.52,1.16,7.06,.52,9.61-.52,2.06-1.42,3.09-2.37,3.91-1.48,1.28-4.16,1.29-5.38,.27-3.27-2.72,2.8-17.07,5.56-16.68,.69,.1,1.04,1.1,1.67,2.88Z"/>
  <g>
    <path class="cls-4" d="M38.93,39.81c-.46,1.3,1.86,3.39,.72,4.77-1.83,2.22-6.42,7.79-11.75,7.03-2.7-.39-6.63-2.14-6.6-5,.08-7.47,7.14-21.35,13.83-20.09,4.58,.86,5.78,7.67,3.8,13.3Z"/>
    <path class="cls-8" d="M38.94,39.81c-.2,.74,.3,1.4,.68,2,.79,1.06,1.29,2.36,.17,3.45-.69,.83-1.45,1.73-2.21,2.5-1.05,1.06-2.19,2.05-3.48,2.87-2.55,1.74-6.07,2.12-8.89,.85-3.51-1.38-5.12-3.5-4.19-7.38,1.22-6.32,5.39-15.72,12.02-17.73,7.14-1.12,7.87,8.63,5.9,13.44h0Zm-.01,0c1.83-4.63,1.15-14.31-5.79-13.01-6.4,2.09-10.97,13.29-11.28,19.59-.08,2.12,1.96,3.29,3.77,4.01,2.65,1.1,5.47,.79,7.84-.8,2.29-1.46,4.41-3.5,5.98-5.72,.36-1.15-.83-2.82-.52-4.08h0Z"/>
  </g>
  <circle class="cls-3" cx="29.9" cy="33.11" r="2.65"/>
  <path class="cls-7" d="M43.16,55.68s2.23,.27,1.69,1.65c-.57,1.49,.72,1.89,1.51,1.89,.68,0,2.52,.16,1.98-1.97-.27-1.07,1.78-1.58,1.78-1.58-2.12,.26-3.63-2.25-3.63-2.25,0,0-.8,2.12-3.34,2.25Z"/>
  <path class="cls-8" d="M41.91,41.09c.03-4.42-1.16-11.65-6.28-12.64-1.83-.44-3.59-.12-5.19,1.08-3.61,2.8-5.69,7.68-7.3,11.98-.26,.73-.76,2.21-1,2.94-.59,1.31-1.95,2.11-3.35,1.87-1.29-.29-2.01-1.22-2.55-2.1,1.48,.97,3.42,1.55,4.14-.32,0,0,.24-1.47,.24-1.47,.27-1.51,.58-3.13,.96-4.61,1.39-5.31,3.68-11.53,9.44-13.64,2.54-.82,5.72-.84,7.84,.93,2.02,1.81,2.25,4.32,2.77,6.63,.49,3.1,.59,6.23,.28,9.33h0Z"/>
  <path class="cls-1" d="M47.13,53.06c-.71,3.47-5.23,4.38-7,1.15-.69-1.16-.25-2.83,.69-3.69-.07,.14-.17,.41-.03,.71,.1,.25,.4,.45,.59,.42-.55-.03-1.27,.19-1.96,.29-.66,.12-1.33,.23-2.03,.29,1.12-.95,2.14-1.71,3.59-2.2,.93-.34,1.85,.46,1.37,1.39-.24,.46-.72,.72-1.03,1-.35,.27-.3,.79-.1,1.27,1.17,2.39,4.42,1.63,4.95-.85,.14-.64,1.12-.42,.97,.22h0Z"/>
  <path class="cls-1" d="M47.13,52.83c.53,2.48,3.79,3.24,4.95,.85,.42-.97-.04-1.24-.74-1.78-.22-.2-.43-.42-.51-.8-.11-.27,.13-.88,.44-1.01,1.03-.48,2.18,.46,2.97,.88,.58,.37,1.13,.79,1.65,1.25-1.27-.09-2.7-.47-3.89-.59-.12,0-.17,.03-.02,.01,.37-.05,.65-.56,.56-.88-.02-.14-.09-.22-.09-.25,.59,.56,1.11,1.61,1.03,2.48-.15,2.05-2.32,3.56-4.3,3.16-1.56-.32-2.73-1.64-3.04-3.12-.13-.64,.83-.85,.98-.21h0Z"/>
  <path class="cls-2" d="M52.12,32.78c-1.24,3.52-1.16,7.06-.52,9.61,.52,2.06,1.42,3.09,2.37,3.91,1.48,1.28,4.16,1.29,5.38,.27,3.27-2.72-2.8-17.07-5.56-16.68-.69,.1-1.04,1.1-1.67,2.88Z"/>
  <g>
    <path class="cls-4" d="M54.08,40.04c.46,1.3-1.86,3.39-.72,4.77,1.83,2.22,6.42,7.79,11.75,7.03,2.7-.39,6.63-2.14,6.6-5-.08-7.47-7.14-21.35-13.83-20.09-4.58,.86-5.78,7.67-3.8,13.3Z"/>
    <path class="cls-8" d="M54.08,40.04c.31,1.25-.87,2.93-.52,4.08,1.57,2.22,3.69,4.26,5.98,5.72,2.37,1.58,5.19,1.9,7.84,.8,1.81-.72,3.84-1.89,3.77-4.01-.31-6.29-4.88-17.49-11.28-19.59-6.94-1.3-7.62,8.38-5.79,13.01h0Zm-.01,0c-1.97-4.8-1.24-14.56,5.9-13.44,6.98,2.04,11.86,13.2,12.26,19.98,.2,2.57-2.36,4.35-4.43,5.13-2.83,1.27-6.34,.9-8.89-.85-1.29-.82-2.43-1.81-3.48-2.87-.76-.77-1.53-1.67-2.21-2.5-1.11-1.09-.62-2.39,.17-3.45,.38-.6,.87-1.26,.68-2h0Z"/>
  </g>
  <circle class="cls-3" cx="63.11" cy="33.35" r="2.65"/>
  <path class="cls-8" d="M51.1,41.33c-.31-3.1-.21-6.24,.28-9.33,.51-2.32,.75-4.83,2.77-6.63,2.12-1.77,5.29-1.75,7.84-.93,5.76,2.11,8.05,8.32,9.44,13.64,.38,1.48,.69,3.11,.96,4.61l.24,1.47c.72,1.87,2.66,1.29,4.14,.32-.54,.88-1.26,1.81-2.55,2.1-1.4,.24-2.77-.56-3.35-1.87-.24-.74-.73-2.21-1-2.94-1.6-4.3-3.69-9.18-7.3-11.98-1.6-1.2-3.36-1.52-5.19-1.08-5.12,.98-6.3,8.21-6.28,12.64h0Z"/>
  <path class="cls-5" d="M48.27,49.86c0,.59-.75,1.06-1.68,1.06s-1.68-.48-1.68-1.06,3.35-.59,3.35,0Z"/>
  <path class="cls-12" d="M46.4,14.12c15.64,0,28.32,15.5,28.32,34.63s-56.65,19.12-56.64,0c0-19.12,12.68-34.62,28.33-34.62Z"/>
  <path class="cls-9" d="M29.89,71.86c1.31-.26,6.37-1.12,10.9,1.96,.51,.35,5.69,3.95,4.93,7.53-.8,3.75-8.34,4.15-12.93,4s-5.69-8.4-2.9-13.49Z"/>
  <path class="cls-10" d="M36.87,62.85c-.27-.02-.51,.16-.6,.41-.35,.98-1.29,3.94-1.43,8.42-.2,6.32-.27,9.51,1.57,11.13,2.53,2.24,7.61,2.13,9.56-.31,2.01-2.52,.02-6.68-1.88-10.66-1.67-3.5-5.06-8.83-7.22-8.99Z"/>
  <path class="cls-10" d="M55.91,64.31s-.08,5.23-1.31,10.65c-1.4,6.16-2.14,9.27-4.33,10.37-3.02,1.53-7.9,.15-9.17-2.72-1.31-2.95,1.66-6.47,4.51-9.84,2.69-3.18,8.03-7.84,10.3-8.47Z"/>
  <path class="cls-11" d="M63.29,75.39c1.44-1.52,3.77,.5,6.21-.57,4.38-1.91,1.63-10.46,6.81-14.48,2.37-1.83,5.72-2.21,8.3-1.28,3.63,1.32,5.56,5.18,5.96,8.09,1.07,7.73-7.49,16.51-15.97,17.25-4.98,.44-11.65,0-11.65,0-1.08-1.71-.88-7.74,.33-9.01Z"/>
  <path class="cls-9" d="M32.55,77.82c.8,3.72,2.07,7.14,.24,7.53s-3.97-2.31-4.77-6.03,.04-7.06,1.87-7.46,1.86,2.23,2.66,5.96Z"/>
  <path class="cls-10" d="M54.3,15.08c1.63-4.01-.8-7.43-3.93-9.48C40.51-.88,26.23,2.44,21.84,2.78c0,0,19.85,3.65,20.96,6.47,0,0-9.34-3.96-18.59,1.22-6.13,3.43-10.54,10.87-12.64,15.27,0,0,3.63-3.79,13.11-9.42,5.39-3.2,10.93-1.24,13.5-.6,1.42-.58,2.83-.81,3.99-.86,0,0-1.99,6.68,3.22,15.61,0,0-1.73-13.46,3.15-16.01,1.71-.89,3.88-.27,5.75,.63Z"/>
  <circle class="cls-9" cx="60.18" cy="80" r="7.14"/>
  <path class="cls-7" d="M57.83,78.45c.19,.91,.18,2.08-.73,2.27s-3.09-1.38-1.71-2.85c.79-.85,2.25-.33,2.44,.58Z"/>
  <path class="cls-7" d="M60.22,76.49c.04,.93-.16,2.08-1.08,2.13s-2.83-1.85-1.23-3.09c.91-.71,2.27,.04,2.32,.96Z"/>
  <path class="cls-7" d="M62.41,79.26c-.19,.91-.18,2.08,.73,2.27s3.09-1.38,1.71-2.85c-.79-.85-2.25-.33-2.44,.58Z"/>
  <path class="cls-7" d="M60.57,76.36c-.24,.9-.3,2.07,.6,2.31s3.16-1.2,1.87-2.75c-.74-.89-2.23-.45-2.47,.44Z"/>
  <path class="cls-7" d="M60.22,78.47c-.08,0-1.32-.09-2.11,.76-.66,.71-.4,1.41-.4,1.41,0,0-2.15,.77-2.41,2.05-.14,.67,.22,1.65,.94,1.99,2,.96,3.52-.53,3.52-.53,0,0,1.05,1.38,2.58,1.05,1.06-.23,1.98-1.27,1.93-2.05-.09-1.39-2.01-2.38-2.01-2.38,0,0,.3-.59-.22-1.37-.53-.8-1.58-.92-1.82-.94Z"/>
  <path class="cls-6" d="M29.25,77.77c.28,.75,.61,1.82,.53,2.32s-.82-.1-1.04-1.94c-.13-1.06,.23-1.13,.51-.38Z"/>
  <path class="cls-6" d="M29.04,75.11c.26,.82,.56,1.94,.44,2.32s-.92-.63-1.04-2.34c-.07-.98,.33-.81,.6,.01Z"/>
  <path class="cls-6" d="M29.05,74.86c.22,.9,.54,1.98,.73,1.86s.11-2.26-.51-3.18c-.35-.53-.44,.42-.22,1.32Z"/>
  <path class="cls-6" d="M29.6,76.9s-.21,.41-.08,1.47c.11,.89,.53,1.98,.53,1.98,0,0-.28,.94,.04,2.19,.17,.65,.49,1.41,.69,1.45,.55,.13,.35-1.78,.35-1.78,0,0,.53,.86,.66,0,.09-.6-.08-1.89-.3-2.57-.4-1.22-.76-.66-.76-.66,0,0-.31-1.39-.6-1.9-.3-.53-.48-.24-.52-.17Z"/>
  <path class="cls-6" d="M30.12,76.8c.23,.89,.56,1.95,.74,1.78s.05-2.39-.56-3.21c-.35-.47-.41,.54-.18,1.43Z"/>
</svg>