<?xml version="1.0" encoding="UTF-8"?>
<svg id="Layer_1" data-name="Layer 1" xmlns="http://www.w3.org/2000/svg" viewBox="0 0 1125 2436">
  <defs>
    <style>
      .cls-1 {
        fill: #fff;
      }

      .cls-2 {
        fill: red;
      }
    </style>
  </defs>
  <rect width="1125" height="2436"/>
  <polygon class="cls-1" points="67.97 341.36 138.5 444.67 209.04 341.36 67.97 341.36"/>
  <polygon class="cls-1" points="208.83 341.36 279.37 444.67 349.91 341.36 208.83 341.36"/>
  <polygon class="cls-1" points="349.91 341.36 420.44 444.67 490.98 341.36 349.91 341.36"/>
  <polygon class="cls-1" points="490.98 341.36 561.51 444.67 632.05 341.36 490.98 341.36"/>
  <polygon class="cls-1" points="631.92 341.36 702.46 444.67 772.99 341.36 631.92 341.36"/>
  <polygon class="cls-1" points="914.2 341.36 984.74 444.67 1055.27 341.36 914.2 341.36"/>
  <polygon class="cls-1" points="773.13 341.36 843.67 444.67 914.2 341.36 773.13 341.36"/>
  <polygon class="cls-1" points="68.57 2212.49 139.12 2102.85 209.68 2212.49 68.57 2212.49"/>
  <polygon class="cls-1" points="209.47 2212.49 280.03 2102.85 350.59 2212.49 209.47 2212.49"/>
  <polygon class="cls-1" points="350.59 2212.49 421.14 2102.85 491.7 2212.49 350.59 2212.49"/>
  <polygon class="cls-1" points="491.7 2212.49 562.26 2102.85 632.81 2212.49 491.7 2212.49"/>
  <polygon class="cls-1" points="632.68 2212.49 703.24 2102.85 773.8 2212.49 632.68 2212.49"/>
  <polygon class="cls-1" points="915.05 2212.49 985.61 2102.85 1056.16 2212.49 915.05 2212.49"/>
  <polygon class="cls-1" points="773.94 2212.49 844.49 2102.85 915.05 2212.49 773.94 2212.49"/>
  <path class="cls-2" d="M0,137V2436H1125V137H0ZM999.77,2212.49H123.47c-30.65,0-55.5-90.28-55.5-201.64V543c0-111.36,24.85-201.64,55.5-201.64H999.77c30.65,0,55.5,90.28,55.5,201.64V2010.85c0,111.36-24.85,201.64-55.5,201.64Z"/>
  <path class="cls-1" d="M453.8,233.03c-40.72,28.74-72.67,42.57-162.3,42.57s-127.44-22.35-162.3-42.57c-6.39-3.71,72.67-42.57,162.3-42.57s168.66,38.09,162.3,42.57Z"/>
  <path d="M239.35,194.72s-10.62,38.32-8.79,76.63c0,0,52.01,8.45,74.09,8.51,25.57,0,70.63-10.5,70.63-10.64,0-42.57-6.09-70.25-6.09-70.25-23.18-4.26-40.06-8.46-60.89-8.51-22.66-.06-45.82,0-68.96,4.26Z"/>
  <path class="cls-1" d="M670.5,234.17c40.72,28.74,72.67,42.57,162.3,42.57,89.64,0,127.44-22.35,162.3-42.57,6.39-3.71-72.67-42.57-162.3-42.57-89.64,0-168.66,38.09-162.3,42.57Z"/>
  <path d="M884.95,195.85s10.62,38.32,8.79,76.63c0,0-52.01,8.45-74.09,8.51-25.57,0-70.63-10.5-70.63-10.64,0-42.57,6.09-70.25,6.09-70.25,23.18-4.26,40.06-8.46,60.89-8.51,22.66-.06,45.82,0,68.96,4.26Z"/>
  <rect class="cls-2" width="1125" height="155"/>
</svg>