<?xml version="1.0" encoding="UTF-8"?>
<svg id="Layer_1" data-name="Layer 1" xmlns="http://www.w3.org/2000/svg" viewBox="0 0 1242 2208">
  <defs>
    <style>
      .cls-1 {
        fill: #fff;
      }

      .cls-2 {
        fill: red;
      }
    </style>
  </defs>
  <polygon class="cls-1" points="75.4 309.2 153.24 402.85 231.09 309.2 75.4 309.2"/>
  <polygon class="cls-1" points="230.86 309.2 308.71 402.85 386.56 309.2 230.86 309.2"/>
  <polygon class="cls-1" points="386.56 309.2 464.41 402.85 542.26 309.2 386.56 309.2"/>
  <polygon class="cls-1" points="542.26 309.2 620.1 402.85 697.95 309.2 542.26 309.2"/>
  <polygon class="cls-1" points="697.81 309.2 775.65 402.85 853.5 309.2 697.81 309.2"/>
  <polygon class="cls-1" points="1009.35 309.2 1087.2 402.85 1165.05 309.2 1009.35 309.2"/>
  <polygon class="cls-1" points="853.65 309.2 931.5 402.85 1009.35 309.2 853.65 309.2"/>
  <polygon class="cls-1" points="76.06 2005.38 153.93 1906 231.8 2005.38 76.06 2005.38"/>
  <polygon class="cls-1" points="231.57 2005.38 309.44 1906 387.31 2005.38 231.57 2005.38"/>
  <polygon class="cls-1" points="387.31 2005.38 465.18 1906 543.05 2005.38 387.31 2005.38"/>
  <polygon class="cls-1" points="543.05 2005.38 620.92 1906 698.79 2005.38 543.05 2005.38"/>
  <polygon class="cls-1" points="698.65 2005.38 776.52 1906 854.39 2005.38 698.65 2005.38"/>
  <polygon class="cls-1" points="1010.29 2005.38 1088.16 1906 1166.03 2005.38 1010.29 2005.38"/>
  <polygon class="cls-1" points="854.54 2005.38 932.41 1906 1010.29 2005.38 854.54 2005.38"/>
  <path class="cls-2" d="M.38,123.96V2208H1242V123.96H.38ZM1103.79,2005.38H136.65c-33.83,0-61.26-81.84-61.26-182.79V491.99c0-100.95,27.43-182.79,61.26-182.79h967.14c33.83,0,61.26,81.84,61.26,182.79V1822.6c0,100.95-27.43,182.79-61.26,182.79Z"/>
  <path class="cls-1" d="M501.23,211.01c-44.94,26.05-80.2,38.59-179.13,38.59s-140.65-20.26-179.13-38.59c-7.05-3.36,80.2-38.59,179.13-38.59s186.14,34.53,179.13,38.59Z"/>
  <path d="M264.55,176.28s-11.72,34.73-9.7,69.47c0,0,57.4,7.66,81.77,7.72,28.23,0,77.96-9.52,77.96-9.65,0-38.59-6.72-63.68-6.72-63.68-25.58-3.86-44.21-7.67-67.2-7.72-25.01-.06-50.57,0-76.1,3.86Z"/>
  <path class="cls-1" d="M740.39,212.04c44.94,26.05,80.2,38.59,179.13,38.59,98.93,0,140.65-20.26,179.13-38.59,7.05-3.36-80.2-38.59-179.13-38.59-98.93,0-186.14,34.53-179.13,38.59Z"/>
  <path d="M977.07,177.31s11.72,34.73,9.7,69.47c0,0-57.4,7.66-81.77,7.72-28.23,0-77.96-9.52-77.96-9.65,0-38.59,6.72-63.68,6.72-63.68,25.58-3.86,44.21-7.67,67.2-7.72,25.01-.06,50.57,0,76.1,3.86Z"/>
  <rect class="cls-2" x=".38" y="-.24" width="1241.62" height="140.51"/>
</svg>