<?xml version="1.0" encoding="UTF-8"?>
<svg id="Layer_1" data-name="Layer 1" xmlns="http://www.w3.org/2000/svg" viewBox="0 0 1920 1080">
  <defs>
    <style>
      .cls-1 {
        fill: #fff;
      }

      .cls-2 {
        fill: red;
      }
    </style>
  </defs>
  <polygon class="cls-1" points="116 96 236.38 363 356.76 96 116 96"/>
  <polygon class="cls-1" points="356.41 96 476.79 363 597.17 96 356.41 96"/>
  <polygon class="cls-1" points="597.17 96 717.55 363 837.94 96 597.17 96"/>
  <polygon class="cls-1" points="837.94 96 958.32 363 1078.7 96 837.94 96"/>
  <polygon class="cls-1" points="1078.48 96 1198.86 363 1319.24 96 1078.48 96"/>
  <polygon class="cls-1" points="1560.24 96 1680.62 363 1801 96 1560.24 96"/>
  <polygon class="cls-1" points="1319.47 96 1439.86 363 1560.24 96 1319.47 96"/>
  <polygon class="cls-1" points="117.02 975 237.44 708 357.85 975 117.02 975"/>
  <polygon class="cls-1" points="357.5 975 477.92 708 598.33 975 357.5 975"/>
  <polygon class="cls-1" points="598.33 975 718.75 708 839.17 975 598.33 975"/>
  <polygon class="cls-1" points="839.17 975 959.59 708 1080 975 839.17 975"/>
  <polygon class="cls-1" points="1079.78 975 1200.2 708 1320.61 975 1079.78 975"/>
  <polygon class="cls-1" points="1561.68 975 1682.1 708 1802.52 975 1561.68 975"/>
  <polygon class="cls-1" points="1320.85 975 1441.27 708 1561.68 975 1320.85 975"/>
  <path class="cls-2" d="M0,0V1080H1920V0H0ZM1706.28,975H210.72c-52.32,0-94.72-42.41-94.72-94.72V190.72c0-52.32,42.41-94.72,94.72-94.72H1706.28c52.32,0,94.72,42.41,94.72,94.72V880.28c0,52.32-42.41,94.72-94.72,94.72Z"/>
  <path class="cls-1" d="M597,46c-69.5,13.5-124.02,20-277,20S102.5,55.5,43,46c-10.91-1.74,124.02-20,277-20s287.84,17.89,277,20Z"/>
  <path d="M231,28s-18.12,18-15,36c0,0,88.76,3.97,126.45,4,43.65,0,120.55-4.93,120.55-5,0-20-10.39-33-10.39-33-39.56-2-68.37-3.97-103.92-4-38.67-.03-78.2,0-117.69,2Z"/>
  <path class="cls-1" d="M1320.11,45.65c69.5,13.5,124.02,20,277,20s217.5-10.5,277-20c10.91-1.74-124.02-20-277-20s-287.84,17.89-277,20Z"/>
  <path d="M1686.11,27.65s18.12,18,15,36c0,0-88.76,3.97-126.45,4-43.65,0-120.55-4.93-120.55-5,0-20,10.39-33,10.39-33,39.56-2,68.37-3.97,103.92-4,38.67-.03,78.2,0,117.69,2Z"/>
</svg>